<svg xmlns="http://www.w3.org/2000/svg" version="1.1" fill="#f13a00" viewBox="-5.0 -10.0 110.0 135.0">
 <path d="m73.777 43.254c0.375 0.70703 0.10547 1.5859-0.60156 1.9609s-1.5859 0.10547-1.9609-0.60156l-0.066406-0.12891c-0.019532-0.035156-0.035157-0.070313-0.050782-0.10547l-0.011718-0.019531c-0.375-0.70312-0.10938-1.5781 0.59375-1.957 0.70312-0.375 1.5781-0.10938 1.957 0.59375l0.011719 0.019531c0.023437 0.035156 0.042968 0.070313 0.0625 0.10547l0.066406 0.12891zm-13.863 3.043c-0.46094-0.46094-1.0977-0.74609-1.8047-0.74609-0.70312 0-1.3438 0.28516-1.8047 0.74609-0.46094 0.46094-0.74609 1.0977-0.74609 1.8047 0 0.70313 0.28516 1.3438 0.74609 1.8047 0.46094 0.46094 1.0977 0.74609 1.8047 0.74609 0.70312 0 1.3438-0.28516 1.8047-0.74609 0.46094-0.46094 0.74609-1.0977 0.74609-1.8047 0-0.70312-0.28516-1.3438-0.74609-1.8047zm-1.8047-3.6484c1.5078 0 2.8672 0.60937 3.8555 1.5977 0.98828 0.98828 1.5977 2.3516 1.5977 3.8555 0 1.5078-0.60938 2.8672-1.5977 3.8555-0.98828 0.98828-2.3516 1.5977-3.8555 1.5977-1.5078 0-2.8672-0.60938-3.8555-1.5977-0.98828-0.98438-1.5977-2.3516-1.5977-3.8555 0-1.5078 0.60938-2.8672 1.5977-3.8555 0.98828-0.98828 2.3516-1.5977 3.8555-1.5977zm-20.895-12.027-6.9961 10.965c0.44922 0.375 0.94531 0.6875 1.4766 0.93359 0.81641 0.37109 1.7383 0.58203 2.7148 0.58203 1.8086 0 3.4492-0.73437 4.6328-1.918 1.1875-1.1875 1.918-2.8242 1.918-4.6328 0-1.4844-0.48828-2.8477-1.3086-3.9375-0.63672-0.84375-1.4727-1.5312-2.4375-1.9883zm8.7266-13.676-7.1602 11.219c1.2539 0.65625 2.3398 1.5859 3.1836 2.707 1.1914 1.5859 1.8984 3.5508 1.8984 5.6758 0 2.6094-1.0586 4.9766-2.7695 6.6875s-4.0742 2.7695-6.6875 2.7695c-1.3867 0-2.7148-0.30469-3.918-0.85156-0.66016-0.30078-1.2773-0.67188-1.8438-1.1055l-19.52 30.586 11.297-1.4766c0.71094-0.09375 1.3945-0.039062 2.0469 0.16016 0.65234 0.19922 1.25 0.53516 1.7891 1.0039 0.54297 0.47656 0.95703 1.0273 1.2344 1.6445 0.28125 0.62109 0.42578 1.293 0.42578 2.0078v14.895c0 0.58594 0.24219 1.1211 0.62891 1.5117 0.39062 0.39062 0.92578 0.62891 1.5117 0.62891 0.58594 0 1.1211-0.24219 1.5117-0.62891 0.39063-0.39062 0.62891-0.92578 0.62891-1.5117v-15.949c0-2.3984 1.332-3.9453 3.0352-4.6289 0.64062-0.25781 1.3281-0.38672 2.0078-0.38672 0.67969 0 1.3672 0.12891 2.0078 0.38672 1.7031 0.68359 3.0352 2.2305 3.0352 4.6289h-0.007812l0.03125 4.3789c0 0.035156 0.003906 0.066406 0 0.10156l0.019531 2.6992c0.003906 0.58594 0.25 1.125 0.64453 1.5195 0.38672 0.38672 0.91797 0.62891 1.5039 0.62891 0.58594 0 1.1211-0.24219 1.5117-0.62891 0.39062-0.39063 0.62891-0.92578 0.62891-1.5117v-9.8477c0-1.2227 0.44922-2.3438 1.207-3.207 0.75391-0.85938 1.8125-1.4531 3.0273-1.6094l5.6211-0.73438c0.86328-0.11328 1.6875 0.13281 2.3242 0.62109 0.64062 0.49219 1.0938 1.2305 1.2109 2.0938 0.070313 0.52734 0.33594 1 0.72266 1.3438 0.375 0.33203 0.86719 0.53125 1.4062 0.53125 0.58594 0 1.1211-0.24219 1.5117-0.62891 0.39062-0.39062 0.62891-0.92578 0.62891-1.5117v-0.70312c0-0.78906 0.29297-1.5195 0.78516-2.0781 0.48828-0.55859 1.1758-0.94141 1.9648-1.0469l13.547-1.7734c-0.48047-2.5508-1.1016-5.0781-1.8555-7.5742-0.91016-3.0156-2.0039-5.9453-3.2656-8.7734-0.32422-0.73047 0.003906-1.5859 0.73047-1.9102 0.73047-0.32422 1.5859 0.003906 1.9102 0.73047 1.3281 2.9805 2.4688 6.0273 3.4023 9.1133 0.5625 1.8594 1.0547 3.7422 1.4727 5.6562 0.44531-0.41016 0.9375-0.76953 1.4648-1.0664 1.293-0.73047 2.7969-1.1016 4.2969-1.1094 1.4961-0.007813 3.0078 0.34375 4.3203 1.0547l0.011719 0.007813c-0.85547-4.1289-2.0156-8.1836-3.457-12.129-2.1875-5.9805-5.0195-11.703-8.4258-17.055s-7.3906-10.34-11.887-14.855c-4.4336-4.4531-9.3477-8.4336-14.68-11.836-1.1758-0.75-2.543-0.94922-3.8047-0.67188-1.2617 0.27734-2.4141 1.0391-3.1641 2.2148-0.75 1.1758-0.94922 2.543-0.67188 3.8047s1.0391 2.4141 2.2148 3.1641c4.7188 3.0117 9.0625 6.5312 12.973 10.461 3.9609 3.9844 7.4844 8.3984 10.504 13.141 0.21484 0.33594 0.0625 0.09375 0.16797 0.26562 0.21094 0.33203 0.058594 0.089844 0.16797 0.26562 0.42188 0.67969 0.21484 1.5742-0.46484 1.9961-0.67969 0.42188-1.5742 0.21484-1.9961-0.46484-0.21875-0.34766-0.054687-0.09375-0.15625-0.25391-0.21484-0.34375-0.054687-0.089844-0.15625-0.25391-2.9023-4.5586-6.2969-8.8086-10.117-12.652-3.6836-3.7031-7.7539-7.0195-12.16-9.8633zm-22.926 65.027-14.355 2.0039-0.80078-6.2617 12.941-1.6953c0.30078-0.039062 0.57812-0.019531 0.83203 0.058594 0.25391 0.078125 0.49219 0.21484 0.72266 0.41406 0.22266 0.19531 0.39062 0.41406 0.5 0.66016 0.10938 0.23828 0.16406 0.51172 0.16406 0.81641v4.0078zm14.398-1.8945-4.3086 0.5625v-3.7305c0-1.0234 0.53125-1.668 1.2109-1.9414 0.28516-0.11328 0.60547-0.17188 0.92969-0.17188 0.32812 0 0.64453 0.058594 0.92969 0.17188 0.67969 0.27344 1.2109 0.91797 1.2109 1.9414h0.007812l0.023438 3.168zm42.926-11.852c0.62891-0.03125 1.1836-0.47266 1.3398-1.1133 0.31641-1.332 1.1328-2.293 2.1719-2.8789 0.85938-0.48438 1.8672-0.73047 2.8906-0.73828 1.0273-0.007813 2.0469 0.22656 2.9258 0.70312 1.0859 0.58984 1.9492 1.5664 2.2969 2.9336 0.019531 0.074219 0.042968 0.14453 0.070312 0.21484 0.023438 0.16016 0.042969 0.32031 0.066406 0.48047 0.17969 1.3828-0.21875 2.707-1.0039 3.7305-0.78906 1.0273-1.9688 1.7539-3.3516 1.9336l-40.219 5.2617v-4.5117c0-0.50391 0.17969-0.95703 0.48047-1.3008 0.30078-0.34375 0.73047-0.58203 1.2227-0.64844l5.6211-0.73438c0.070313-0.007813 0.13672 0.011718 0.19531 0.054687 0.050781 0.039063 0.089844 0.097657 0.097656 0.16406 0.16406 1.25 0.77734 2.3555 1.6758 3.1445 0.88672 0.78125 2.0508 1.2578 3.3203 1.2578 1.3906 0 2.6484-0.56641 3.5625-1.4805 0.91406-0.91406 1.4805-2.1758 1.4805-3.5625v-0.70312c0-0.070313 0.023437-0.13281 0.058594-0.17578 0.039062-0.042968 0.09375-0.074218 0.16016-0.082031l14.938-1.9531zm-40.32-11.25c0.55859 0.55859 0.90625 1.332 0.90625 2.1836 0 0.85156-0.34766 1.625-0.90625 2.1836-0.55859 0.55859-1.332 0.90625-2.1836 0.90625-0.85156 0-1.625-0.34766-2.1836-0.90625s-0.90625-1.332-0.90625-2.1836c0-0.85156 0.34766-1.625 0.90625-2.1836 0.55859-0.55859 1.332-0.90625 2.1836-0.90625 0.85156 0 1.625 0.34766 2.1836 0.90625zm-2.1875-3.8086c1.6562 0 3.1523 0.67188 4.2383 1.7539 1.0859 1.0859 1.7539 2.582 1.7539 4.2383 0 1.6523-0.67188 3.1523-1.7539 4.2383-1.0859 1.0859-2.582 1.7539-4.2383 1.7539-1.6523 0-3.1523-0.67188-4.2383-1.7539-1.0859-1.0859-1.7539-2.582-1.7539-4.2383 0-1.6523 0.67188-3.1523 1.7539-4.2383 1.0859-1.0859 2.582-1.7539 4.2383-1.7539zm-14.449 14.074c-0.69531 0.39062-1.5742 0.14453-1.9688-0.55078-0.39062-0.69531-0.14453-1.5742 0.55078-1.9688l3.4414-1.9453c0.69531-0.39062 1.5742-0.14453 1.9688 0.55078 0.39062 0.69531 0.14453 1.5742-0.55078 1.9688zm25.934-8.9102c-0.56641-0.56641-0.56641-1.4844 0-2.0547 0.56641-0.56641 1.4844-0.56641 2.0547 0l1.7188 1.7188c0.56641 0.56641 0.56641 1.4844 0 2.0547-0.56641 0.56641-1.4844 0.56641-2.0547 0zm18.906-4.9492c0.18359-0.78125 0.96875-1.2617 1.7461-1.0781 0.78125 0.18359 1.2617 0.96875 1.0781 1.7461l-0.74609 3.1406c-0.18359 0.78125-0.96875 1.2617-1.7461 1.0781-0.78125-0.18359-1.2617-0.96875-1.0781-1.7461zm-17.434-19.004c-0.80078 0-1.4531-0.64844-1.4531-1.4531 0-0.80078 0.64844-1.4531 1.4531-1.4531h1.4961c0.80078 0 1.4531 0.64844 1.4531 1.4531 0 0.80078-0.64844 1.4531-1.4531 1.4531zm-3.7188 7.2461c0.56641-0.56641 1.4844-0.56641 2.0547 0 0.56641 0.56641 0.56641 1.4844 0 2.0547l-1.9453 1.9453c-0.56641 0.56641-1.4844 0.56641-2.0547 0-0.56641-0.56641-0.56641-1.4844 0-2.0547z" fill-rule="evenodd"/>
</svg>